# xmcd
#
# Track frame offsets:
#	150
#	15432
#	28261
#	44368
#	59117
#	74519
#	88148
#	103947
#	119987
#
# Disc length: 2319 seconds
#
# Revision: 1
# Processed by: cddbd v1.5.2PL0 Copyright (c) Steve Scherf et al.
# Submitted via: audiograbber 1.83.01
#
DISCID=8b090d09
DTITLE=Various Artist - CDX 22
DYEAR=1991
DGENRE=Country
TTITLE0=Dolly Parton - Country Road
TTITLE1=Alan Jackson - Dallas
TTITLE2=Keith Palmer - Forgotten But Not Gone
TTITLE3=Reba McEntire - Is There Life Out There
TTITLE4=BB Watson - Lover Not A Fighter
TTITLE5=George Strait - Lovesick Blues
TTITLE6=John McEuen - Return To Dismal Swamp
TTITLE7=Lee Roy Parnell - The Rock
TTITLE8=Lee Roy Parnell - Interview
EXTD=
EXTT0=
EXTT1=
EXTT2=
EXTT3=
EXTT4=
EXTT5=
EXTT6=
EXTT7=
EXTT8=
PLAYORDER=
